<mxfile host="app.diagrams.net" modified="2024-04-12T12:28:22.763Z" agent="Mozilla/5.0 (Windows NT 10.0; Win64; x64) AppleWebKit/537.36 (KHTML, like Gecko) Chrome/123.0.0.0 Safari/537.36" etag="EhyI0Wdyg_SbekIc69fL" version="24.0.7" type="github">
  <diagram name="Page-1" id="xyv_VQYjUSHL6aBiQQsB">
    <mxGraphModel dx="1134" dy="600" grid="1" gridSize="10" guides="1" tooltips="1" connect="1" arrows="1" fold="1" page="1" pageScale="1" pageWidth="827" pageHeight="1169" math="0" shadow="0">
      <root>
        <mxCell id="0" />
        <mxCell id="1" parent="0" />
        <mxCell id="jm3a6lzr8KF0GBkQdWP_-2" value="" style="rounded=0;whiteSpace=wrap;html=1;fillColor=none;strokeWidth=2;" vertex="1" parent="1">
          <mxGeometry x="80" y="40" width="660" height="1220" as="geometry" />
        </mxCell>
        <mxCell id="jm3a6lzr8KF0GBkQdWP_-3" value="Admin" style="shape=umlActor;verticalLabelPosition=bottom;verticalAlign=top;html=1;outlineConnect=0;" vertex="1" parent="1">
          <mxGeometry x="20" y="70" width="30" height="60" as="geometry" />
        </mxCell>
        <mxCell id="jm3a6lzr8KF0GBkQdWP_-4" value="Registered&lt;div&gt;user&lt;/div&gt;" style="shape=umlActor;verticalLabelPosition=bottom;verticalAlign=top;html=1;outlineConnect=0;" vertex="1" parent="1">
          <mxGeometry x="770" y="60" width="30" height="60" as="geometry" />
        </mxCell>
        <mxCell id="jm3a6lzr8KF0GBkQdWP_-5" value="User" style="shape=umlActor;verticalLabelPosition=bottom;verticalAlign=top;html=1;outlineConnect=0;" vertex="1" parent="1">
          <mxGeometry x="765" y="920" width="30" height="60" as="geometry" />
        </mxCell>
        <mxCell id="jm3a6lzr8KF0GBkQdWP_-6" value="Urban Air Quality Monitoring and prediction ststem" style="text;html=1;align=center;verticalAlign=middle;whiteSpace=wrap;rounded=0;" vertex="1" parent="1">
          <mxGeometry x="90" y="50" width="270" height="30" as="geometry" />
        </mxCell>
        <mxCell id="jm3a6lzr8KF0GBkQdWP_-7" value="" style="rounded=0;whiteSpace=wrap;html=1;fillColor=none;strokeWidth=2;" vertex="1" parent="1">
          <mxGeometry x="90" y="90" width="640" height="110" as="geometry" />
        </mxCell>
        <mxCell id="jm3a6lzr8KF0GBkQdWP_-8" value="request register" style="ellipse;whiteSpace=wrap;html=1;" vertex="1" parent="1">
          <mxGeometry x="490" y="107.5" width="120" height="30" as="geometry" />
        </mxCell>
        <mxCell id="jm3a6lzr8KF0GBkQdWP_-9" value="login" style="ellipse;whiteSpace=wrap;html=1;" vertex="1" parent="1">
          <mxGeometry x="330" y="150" width="120" height="30" as="geometry" />
        </mxCell>
        <mxCell id="jm3a6lzr8KF0GBkQdWP_-10" value="admin login" style="ellipse;whiteSpace=wrap;html=1;" vertex="1" parent="1">
          <mxGeometry x="160" y="137.5" width="110" height="35" as="geometry" />
        </mxCell>
        <mxCell id="jm3a6lzr8KF0GBkQdWP_-11" value="" style="endArrow=none;html=1;rounded=0;entryX=0;entryY=0.5;entryDx=0;entryDy=0;exitX=1;exitY=0.3333333333333333;exitDx=0;exitDy=0;exitPerimeter=0;" edge="1" parent="1" source="jm3a6lzr8KF0GBkQdWP_-3" target="jm3a6lzr8KF0GBkQdWP_-10">
          <mxGeometry width="50" height="50" relative="1" as="geometry">
            <mxPoint x="60" y="190" as="sourcePoint" />
            <mxPoint x="360" y="60" as="targetPoint" />
          </mxGeometry>
        </mxCell>
        <mxCell id="jm3a6lzr8KF0GBkQdWP_-12" value="" style="endArrow=none;html=1;rounded=0;entryX=0;entryY=0.3333333333333333;entryDx=0;entryDy=0;entryPerimeter=0;exitX=1;exitY=0.5;exitDx=0;exitDy=0;" edge="1" parent="1" source="jm3a6lzr8KF0GBkQdWP_-8" target="jm3a6lzr8KF0GBkQdWP_-4">
          <mxGeometry width="50" height="50" relative="1" as="geometry">
            <mxPoint x="310" y="150" as="sourcePoint" />
            <mxPoint x="360" y="100" as="targetPoint" />
          </mxGeometry>
        </mxCell>
        <mxCell id="jm3a6lzr8KF0GBkQdWP_-18" value="" style="rounded=0;whiteSpace=wrap;html=1;fillColor=none;strokeWidth=2;" vertex="1" parent="1">
          <mxGeometry x="90" y="210" width="640" height="260" as="geometry" />
        </mxCell>
        <mxCell id="jm3a6lzr8KF0GBkQdWP_-13" value="includes" style="html=1;verticalAlign=bottom;endArrow=open;dashed=1;endSize=8;curved=0;rounded=0;exitX=0;exitY=1;exitDx=0;exitDy=0;entryX=0.5;entryY=0;entryDx=0;entryDy=0;" edge="1" parent="1" source="jm3a6lzr8KF0GBkQdWP_-8" target="jm3a6lzr8KF0GBkQdWP_-9">
          <mxGeometry relative="1" as="geometry">
            <mxPoint x="380" y="80" as="sourcePoint" />
            <mxPoint x="300" y="80" as="targetPoint" />
            <mxPoint as="offset" />
          </mxGeometry>
        </mxCell>
        <mxCell id="jm3a6lzr8KF0GBkQdWP_-17" value="Registration and Login" style="text;html=1;align=center;verticalAlign=middle;whiteSpace=wrap;rounded=0;" vertex="1" parent="1">
          <mxGeometry x="100" y="90" width="130" height="30" as="geometry" />
        </mxCell>
        <mxCell id="jm3a6lzr8KF0GBkQdWP_-19" value="data monitoring" style="ellipse;whiteSpace=wrap;html=1;" vertex="1" parent="1">
          <mxGeometry x="120" y="350" width="120" height="30" as="geometry" />
        </mxCell>
        <mxCell id="jm3a6lzr8KF0GBkQdWP_-20" value="data prediction" style="ellipse;whiteSpace=wrap;html=1;" vertex="1" parent="1">
          <mxGeometry x="450" y="320" width="120" height="30" as="geometry" />
        </mxCell>
        <mxCell id="jm3a6lzr8KF0GBkQdWP_-21" value="data analysis" style="ellipse;whiteSpace=wrap;html=1;" vertex="1" parent="1">
          <mxGeometry x="190" y="280" width="120" height="30" as="geometry" />
        </mxCell>
        <mxCell id="jm3a6lzr8KF0GBkQdWP_-22" value="graphs" style="ellipse;whiteSpace=wrap;html=1;" vertex="1" parent="1">
          <mxGeometry x="480" y="250" width="120" height="30" as="geometry" />
        </mxCell>
        <mxCell id="jm3a6lzr8KF0GBkQdWP_-23" value="user settings" style="ellipse;whiteSpace=wrap;html=1;" vertex="1" parent="1">
          <mxGeometry x="580" y="380" width="120" height="30" as="geometry" />
        </mxCell>
        <mxCell id="jm3a6lzr8KF0GBkQdWP_-24" value="metrological factors" style="ellipse;whiteSpace=wrap;html=1;" vertex="1" parent="1">
          <mxGeometry x="390" y="410" width="120" height="30" as="geometry" />
        </mxCell>
        <mxCell id="jm3a6lzr8KF0GBkQdWP_-25" value="air quality factors" style="ellipse;whiteSpace=wrap;html=1;" vertex="1" parent="1">
          <mxGeometry x="260" y="380" width="120" height="30" as="geometry" />
        </mxCell>
        <mxCell id="jm3a6lzr8KF0GBkQdWP_-26" value="" style="endArrow=none;html=1;rounded=0;exitX=1;exitY=0.5;exitDx=0;exitDy=0;" edge="1" parent="1" source="jm3a6lzr8KF0GBkQdWP_-23">
          <mxGeometry width="50" height="50" relative="1" as="geometry">
            <mxPoint x="320" y="340" as="sourcePoint" />
            <mxPoint x="760" y="190" as="targetPoint" />
          </mxGeometry>
        </mxCell>
        <mxCell id="jm3a6lzr8KF0GBkQdWP_-27" value="" style="endArrow=none;html=1;rounded=0;exitX=1;exitY=0.5;exitDx=0;exitDy=0;" edge="1" parent="1" source="jm3a6lzr8KF0GBkQdWP_-22">
          <mxGeometry width="50" height="50" relative="1" as="geometry">
            <mxPoint x="320" y="340" as="sourcePoint" />
            <mxPoint x="760" y="190" as="targetPoint" />
          </mxGeometry>
        </mxCell>
        <mxCell id="jm3a6lzr8KF0GBkQdWP_-28" value="" style="endArrow=none;html=1;rounded=0;exitX=1;exitY=0.5;exitDx=0;exitDy=0;" edge="1" parent="1" source="jm3a6lzr8KF0GBkQdWP_-20">
          <mxGeometry width="50" height="50" relative="1" as="geometry">
            <mxPoint x="320" y="340" as="sourcePoint" />
            <mxPoint x="760" y="190" as="targetPoint" />
          </mxGeometry>
        </mxCell>
        <mxCell id="jm3a6lzr8KF0GBkQdWP_-29" value="" style="endArrow=none;html=1;rounded=0;exitX=1;exitY=0.5;exitDx=0;exitDy=0;" edge="1" parent="1" source="jm3a6lzr8KF0GBkQdWP_-21">
          <mxGeometry width="50" height="50" relative="1" as="geometry">
            <mxPoint x="320" y="340" as="sourcePoint" />
            <mxPoint x="760" y="190" as="targetPoint" />
          </mxGeometry>
        </mxCell>
        <mxCell id="jm3a6lzr8KF0GBkQdWP_-30" value="" style="endArrow=none;html=1;rounded=0;exitX=0.937;exitY=0.265;exitDx=0;exitDy=0;exitPerimeter=0;" edge="1" parent="1" source="jm3a6lzr8KF0GBkQdWP_-19">
          <mxGeometry width="50" height="50" relative="1" as="geometry">
            <mxPoint x="320" y="340" as="sourcePoint" />
            <mxPoint x="760" y="190" as="targetPoint" />
            <Array as="points">
              <mxPoint x="510" y="230" />
            </Array>
          </mxGeometry>
        </mxCell>
        <mxCell id="jm3a6lzr8KF0GBkQdWP_-31" value="" style="endArrow=none;html=1;rounded=0;entryX=0;entryY=0.5;entryDx=0;entryDy=0;" edge="1" parent="1" target="jm3a6lzr8KF0GBkQdWP_-21">
          <mxGeometry width="50" height="50" relative="1" as="geometry">
            <mxPoint x="60" y="190" as="sourcePoint" />
            <mxPoint x="370" y="290" as="targetPoint" />
          </mxGeometry>
        </mxCell>
        <mxCell id="jm3a6lzr8KF0GBkQdWP_-32" value="" style="endArrow=none;html=1;rounded=0;entryX=0;entryY=0.5;entryDx=0;entryDy=0;" edge="1" parent="1" target="jm3a6lzr8KF0GBkQdWP_-22">
          <mxGeometry width="50" height="50" relative="1" as="geometry">
            <mxPoint x="60" y="190" as="sourcePoint" />
            <mxPoint x="370" y="290" as="targetPoint" />
            <Array as="points">
              <mxPoint x="280" y="250" />
            </Array>
          </mxGeometry>
        </mxCell>
        <mxCell id="jm3a6lzr8KF0GBkQdWP_-33" value="" style="endArrow=none;html=1;rounded=0;entryX=0;entryY=0;entryDx=0;entryDy=0;" edge="1" parent="1" target="jm3a6lzr8KF0GBkQdWP_-19">
          <mxGeometry width="50" height="50" relative="1" as="geometry">
            <mxPoint x="60" y="190" as="sourcePoint" />
            <mxPoint x="370" y="290" as="targetPoint" />
          </mxGeometry>
        </mxCell>
        <mxCell id="jm3a6lzr8KF0GBkQdWP_-34" value="" style="endArrow=none;html=1;rounded=0;entryX=0;entryY=0.5;entryDx=0;entryDy=0;" edge="1" parent="1" target="jm3a6lzr8KF0GBkQdWP_-20">
          <mxGeometry width="50" height="50" relative="1" as="geometry">
            <mxPoint x="60" y="190" as="sourcePoint" />
            <mxPoint x="370" y="290" as="targetPoint" />
            <Array as="points">
              <mxPoint x="190" y="240" />
            </Array>
          </mxGeometry>
        </mxCell>
        <mxCell id="jm3a6lzr8KF0GBkQdWP_-35" value="extends" style="html=1;verticalAlign=bottom;endArrow=open;dashed=1;endSize=8;curved=0;rounded=0;entryX=0;entryY=0.5;entryDx=0;entryDy=0;exitX=0.5;exitY=1;exitDx=0;exitDy=0;" edge="1" parent="1" source="jm3a6lzr8KF0GBkQdWP_-19" target="jm3a6lzr8KF0GBkQdWP_-25">
          <mxGeometry relative="1" as="geometry">
            <mxPoint x="390" y="320" as="sourcePoint" />
            <mxPoint x="310" y="320" as="targetPoint" />
          </mxGeometry>
        </mxCell>
        <mxCell id="jm3a6lzr8KF0GBkQdWP_-36" value="extends" style="html=1;verticalAlign=bottom;endArrow=open;dashed=1;endSize=8;curved=0;rounded=0;entryX=0;entryY=0;entryDx=0;entryDy=0;exitX=0.5;exitY=1;exitDx=0;exitDy=0;" edge="1" parent="1" source="jm3a6lzr8KF0GBkQdWP_-21" target="jm3a6lzr8KF0GBkQdWP_-25">
          <mxGeometry relative="1" as="geometry">
            <mxPoint x="390" y="320" as="sourcePoint" />
            <mxPoint x="310" y="320" as="targetPoint" />
          </mxGeometry>
        </mxCell>
        <mxCell id="jm3a6lzr8KF0GBkQdWP_-37" value="extends" style="html=1;verticalAlign=bottom;endArrow=open;dashed=1;endSize=8;curved=0;rounded=0;entryX=1;entryY=0;entryDx=0;entryDy=0;exitX=0;exitY=1;exitDx=0;exitDy=0;" edge="1" parent="1" source="jm3a6lzr8KF0GBkQdWP_-20" target="jm3a6lzr8KF0GBkQdWP_-25">
          <mxGeometry relative="1" as="geometry">
            <mxPoint x="390" y="320" as="sourcePoint" />
            <mxPoint x="310" y="320" as="targetPoint" />
          </mxGeometry>
        </mxCell>
        <mxCell id="jm3a6lzr8KF0GBkQdWP_-38" value="extends" style="html=1;verticalAlign=bottom;endArrow=open;dashed=1;endSize=8;curved=0;rounded=0;entryX=0.758;entryY=0.167;entryDx=0;entryDy=0;exitX=0.303;exitY=1.128;exitDx=0;exitDy=0;entryPerimeter=0;exitPerimeter=0;" edge="1" parent="1" source="jm3a6lzr8KF0GBkQdWP_-20" target="jm3a6lzr8KF0GBkQdWP_-24">
          <mxGeometry relative="1" as="geometry">
            <mxPoint x="476" y="355" as="sourcePoint" />
            <mxPoint x="374" y="395" as="targetPoint" />
          </mxGeometry>
        </mxCell>
        <mxCell id="jm3a6lzr8KF0GBkQdWP_-39" value="extends" style="html=1;verticalAlign=bottom;endArrow=open;dashed=1;endSize=8;curved=0;rounded=0;entryX=0.5;entryY=0;entryDx=0;entryDy=0;exitX=0.699;exitY=1.05;exitDx=0;exitDy=0;exitPerimeter=0;" edge="1" parent="1" source="jm3a6lzr8KF0GBkQdWP_-21" target="jm3a6lzr8KF0GBkQdWP_-24">
          <mxGeometry relative="1" as="geometry">
            <mxPoint x="260" y="320" as="sourcePoint" />
            <mxPoint x="286" y="395" as="targetPoint" />
          </mxGeometry>
        </mxCell>
        <mxCell id="jm3a6lzr8KF0GBkQdWP_-40" value="extends" style="html=1;verticalAlign=bottom;endArrow=open;dashed=1;endSize=8;curved=0;rounded=0;entryX=0;entryY=0.5;entryDx=0;entryDy=0;exitX=0.5;exitY=1;exitDx=0;exitDy=0;" edge="1" parent="1" source="jm3a6lzr8KF0GBkQdWP_-19" target="jm3a6lzr8KF0GBkQdWP_-24">
          <mxGeometry relative="1" as="geometry">
            <mxPoint x="190" y="390" as="sourcePoint" />
            <mxPoint x="270" y="405" as="targetPoint" />
            <Array as="points">
              <mxPoint x="220" y="430" />
            </Array>
          </mxGeometry>
        </mxCell>
        <mxCell id="jm3a6lzr8KF0GBkQdWP_-41" value="Dashboard" style="text;html=1;align=center;verticalAlign=middle;whiteSpace=wrap;rounded=0;" vertex="1" parent="1">
          <mxGeometry x="90" y="440" width="80" height="30" as="geometry" />
        </mxCell>
        <mxCell id="jm3a6lzr8KF0GBkQdWP_-42" value="" style="rounded=0;whiteSpace=wrap;html=1;fillColor=none;strokeWidth=2;" vertex="1" parent="1">
          <mxGeometry x="90" y="480" width="640" height="340" as="geometry" />
        </mxCell>
        <mxCell id="jm3a6lzr8KF0GBkQdWP_-43" value="home" style="ellipse;whiteSpace=wrap;html=1;" vertex="1" parent="1">
          <mxGeometry x="200" y="525" width="120" height="30" as="geometry" />
        </mxCell>
        <mxCell id="jm3a6lzr8KF0GBkQdWP_-44" value="about" style="ellipse;whiteSpace=wrap;html=1;" vertex="1" parent="1">
          <mxGeometry x="490" y="620" width="120" height="30" as="geometry" />
        </mxCell>
        <mxCell id="jm3a6lzr8KF0GBkQdWP_-45" value="blog" style="ellipse;whiteSpace=wrap;html=1;" vertex="1" parent="1">
          <mxGeometry x="180" y="600" width="120" height="30" as="geometry" />
        </mxCell>
        <mxCell id="jm3a6lzr8KF0GBkQdWP_-46" value="pages" style="ellipse;whiteSpace=wrap;html=1;" vertex="1" parent="1">
          <mxGeometry x="330" y="660" width="120" height="30" as="geometry" />
        </mxCell>
        <mxCell id="jm3a6lzr8KF0GBkQdWP_-47" value="location" style="ellipse;whiteSpace=wrap;html=1;" vertex="1" parent="1">
          <mxGeometry x="510" y="520" width="120" height="35" as="geometry" />
        </mxCell>
        <mxCell id="jm3a6lzr8KF0GBkQdWP_-48" value="FAQ" style="ellipse;whiteSpace=wrap;html=1;" vertex="1" parent="1">
          <mxGeometry x="414" y="740" width="120" height="30" as="geometry" />
        </mxCell>
        <mxCell id="jm3a6lzr8KF0GBkQdWP_-49" value="terms &amp;amp; conditions" style="ellipse;whiteSpace=wrap;html=1;" vertex="1" parent="1">
          <mxGeometry x="270" y="735" width="120" height="40" as="geometry" />
        </mxCell>
        <mxCell id="jm3a6lzr8KF0GBkQdWP_-50" value="privacy policy" style="ellipse;whiteSpace=wrap;html=1;" vertex="1" parent="1">
          <mxGeometry x="110" y="735" width="120" height="35" as="geometry" />
        </mxCell>
        <mxCell id="jm3a6lzr8KF0GBkQdWP_-51" value="references" style="ellipse;whiteSpace=wrap;html=1;" vertex="1" parent="1">
          <mxGeometry x="570" y="737.5" width="120" height="30" as="geometry" />
        </mxCell>
        <mxCell id="jm3a6lzr8KF0GBkQdWP_-52" value="" style="endArrow=none;html=1;rounded=0;" edge="1" parent="1" target="jm3a6lzr8KF0GBkQdWP_-3">
          <mxGeometry width="50" height="50" relative="1" as="geometry">
            <mxPoint x="40" y="490" as="sourcePoint" />
            <mxPoint x="430" y="350" as="targetPoint" />
          </mxGeometry>
        </mxCell>
        <mxCell id="jm3a6lzr8KF0GBkQdWP_-53" value="" style="endArrow=none;html=1;rounded=0;entryX=0;entryY=0.5;entryDx=0;entryDy=0;" edge="1" parent="1" target="jm3a6lzr8KF0GBkQdWP_-43">
          <mxGeometry width="50" height="50" relative="1" as="geometry">
            <mxPoint x="40" y="490" as="sourcePoint" />
            <mxPoint x="430" y="490" as="targetPoint" />
          </mxGeometry>
        </mxCell>
        <mxCell id="jm3a6lzr8KF0GBkQdWP_-54" value="" style="endArrow=none;html=1;rounded=0;entryX=0;entryY=0;entryDx=0;entryDy=0;" edge="1" parent="1" target="jm3a6lzr8KF0GBkQdWP_-45">
          <mxGeometry width="50" height="50" relative="1" as="geometry">
            <mxPoint x="40" y="490" as="sourcePoint" />
            <mxPoint x="430" y="490" as="targetPoint" />
          </mxGeometry>
        </mxCell>
        <mxCell id="jm3a6lzr8KF0GBkQdWP_-55" value="" style="endArrow=none;html=1;rounded=0;entryX=0;entryY=0.5;entryDx=0;entryDy=0;" edge="1" parent="1" target="jm3a6lzr8KF0GBkQdWP_-46">
          <mxGeometry width="50" height="50" relative="1" as="geometry">
            <mxPoint x="40" y="490" as="sourcePoint" />
            <mxPoint x="430" y="490" as="targetPoint" />
            <Array as="points">
              <mxPoint x="130" y="650" />
            </Array>
          </mxGeometry>
        </mxCell>
        <mxCell id="jm3a6lzr8KF0GBkQdWP_-56" value="" style="endArrow=none;html=1;rounded=0;entryX=0;entryY=0.5;entryDx=0;entryDy=0;" edge="1" parent="1" target="jm3a6lzr8KF0GBkQdWP_-47">
          <mxGeometry width="50" height="50" relative="1" as="geometry">
            <mxPoint x="40" y="490" as="sourcePoint" />
            <mxPoint x="430" y="490" as="targetPoint" />
          </mxGeometry>
        </mxCell>
        <mxCell id="jm3a6lzr8KF0GBkQdWP_-57" value="" style="endArrow=none;html=1;rounded=0;entryX=0;entryY=0.5;entryDx=0;entryDy=0;" edge="1" parent="1" target="jm3a6lzr8KF0GBkQdWP_-44">
          <mxGeometry width="50" height="50" relative="1" as="geometry">
            <mxPoint x="40" y="490" as="sourcePoint" />
            <mxPoint x="430" y="490" as="targetPoint" />
            <Array as="points">
              <mxPoint x="220" y="580" />
            </Array>
          </mxGeometry>
        </mxCell>
        <mxCell id="jm3a6lzr8KF0GBkQdWP_-58" value="" style="endArrow=none;html=1;rounded=0;entryX=0.5;entryY=0.5;entryDx=0;entryDy=0;entryPerimeter=0;" edge="1" parent="1" target="jm3a6lzr8KF0GBkQdWP_-3">
          <mxGeometry width="50" height="50" relative="1" as="geometry">
            <mxPoint x="60" y="190" as="sourcePoint" />
            <mxPoint x="430" y="350" as="targetPoint" />
            <Array as="points">
              <mxPoint x="60" y="100" />
            </Array>
          </mxGeometry>
        </mxCell>
        <mxCell id="jm3a6lzr8KF0GBkQdWP_-59" value="" style="endArrow=none;html=1;rounded=0;entryX=0;entryY=1;entryDx=0;entryDy=0;entryPerimeter=0;" edge="1" parent="1" target="jm3a6lzr8KF0GBkQdWP_-4">
          <mxGeometry width="50" height="50" relative="1" as="geometry">
            <mxPoint x="760" y="190" as="sourcePoint" />
            <mxPoint x="430" y="200" as="targetPoint" />
          </mxGeometry>
        </mxCell>
        <mxCell id="jm3a6lzr8KF0GBkQdWP_-60" value="" style="endArrow=none;html=1;rounded=0;exitX=1;exitY=0;exitDx=0;exitDy=0;" edge="1" parent="1" source="jm3a6lzr8KF0GBkQdWP_-47">
          <mxGeometry width="50" height="50" relative="1" as="geometry">
            <mxPoint x="380" y="540" as="sourcePoint" />
            <mxPoint x="770" y="470" as="targetPoint" />
          </mxGeometry>
        </mxCell>
        <mxCell id="jm3a6lzr8KF0GBkQdWP_-61" value="" style="endArrow=none;html=1;rounded=0;exitX=1;exitY=0.5;exitDx=0;exitDy=0;" edge="1" parent="1" source="jm3a6lzr8KF0GBkQdWP_-43">
          <mxGeometry width="50" height="50" relative="1" as="geometry">
            <mxPoint x="380" y="540" as="sourcePoint" />
            <mxPoint x="770" y="470" as="targetPoint" />
            <Array as="points">
              <mxPoint x="630" y="570" />
            </Array>
          </mxGeometry>
        </mxCell>
        <mxCell id="jm3a6lzr8KF0GBkQdWP_-62" value="" style="endArrow=none;html=1;rounded=0;exitX=1;exitY=0.5;exitDx=0;exitDy=0;" edge="1" parent="1" source="jm3a6lzr8KF0GBkQdWP_-45">
          <mxGeometry width="50" height="50" relative="1" as="geometry">
            <mxPoint x="380" y="540" as="sourcePoint" />
            <mxPoint x="770" y="470" as="targetPoint" />
            <Array as="points">
              <mxPoint x="650" y="590" />
            </Array>
          </mxGeometry>
        </mxCell>
        <mxCell id="jm3a6lzr8KF0GBkQdWP_-63" value="" style="endArrow=none;html=1;rounded=0;exitX=1;exitY=0.5;exitDx=0;exitDy=0;" edge="1" parent="1" source="jm3a6lzr8KF0GBkQdWP_-44">
          <mxGeometry width="50" height="50" relative="1" as="geometry">
            <mxPoint x="380" y="540" as="sourcePoint" />
            <mxPoint x="770" y="470" as="targetPoint" />
            <Array as="points">
              <mxPoint x="700" y="570" />
            </Array>
          </mxGeometry>
        </mxCell>
        <mxCell id="jm3a6lzr8KF0GBkQdWP_-64" value="" style="endArrow=none;html=1;rounded=0;exitX=1;exitY=0;exitDx=0;exitDy=0;" edge="1" parent="1" source="jm3a6lzr8KF0GBkQdWP_-46">
          <mxGeometry width="50" height="50" relative="1" as="geometry">
            <mxPoint x="380" y="540" as="sourcePoint" />
            <mxPoint x="770" y="470" as="targetPoint" />
            <Array as="points">
              <mxPoint x="680" y="660" />
            </Array>
          </mxGeometry>
        </mxCell>
        <mxCell id="jm3a6lzr8KF0GBkQdWP_-65" value="" style="endArrow=none;html=1;rounded=0;" edge="1" parent="1" target="jm3a6lzr8KF0GBkQdWP_-4">
          <mxGeometry width="50" height="50" relative="1" as="geometry">
            <mxPoint x="770" y="470" as="sourcePoint" />
            <mxPoint x="430" y="200" as="targetPoint" />
          </mxGeometry>
        </mxCell>
        <mxCell id="jm3a6lzr8KF0GBkQdWP_-66" value="extends" style="html=1;verticalAlign=bottom;endArrow=open;dashed=1;endSize=8;curved=0;rounded=0;entryX=0.5;entryY=0;entryDx=0;entryDy=0;exitX=0.083;exitY=0.667;exitDx=0;exitDy=0;exitPerimeter=0;" edge="1" parent="1" source="jm3a6lzr8KF0GBkQdWP_-46" target="jm3a6lzr8KF0GBkQdWP_-50">
          <mxGeometry relative="1" as="geometry">
            <mxPoint x="440" y="660" as="sourcePoint" />
            <mxPoint x="360" y="660" as="targetPoint" />
          </mxGeometry>
        </mxCell>
        <mxCell id="jm3a6lzr8KF0GBkQdWP_-67" value="extends" style="html=1;verticalAlign=bottom;endArrow=open;dashed=1;endSize=8;curved=0;rounded=0;exitX=0.268;exitY=1.079;exitDx=0;exitDy=0;exitPerimeter=0;" edge="1" parent="1" source="jm3a6lzr8KF0GBkQdWP_-46" target="jm3a6lzr8KF0GBkQdWP_-49">
          <mxGeometry relative="1" as="geometry">
            <mxPoint x="350" y="690" as="sourcePoint" />
            <mxPoint x="180" y="745" as="targetPoint" />
          </mxGeometry>
        </mxCell>
        <mxCell id="jm3a6lzr8KF0GBkQdWP_-68" value="extends" style="html=1;verticalAlign=bottom;endArrow=open;dashed=1;endSize=8;curved=0;rounded=0;entryX=0.5;entryY=0;entryDx=0;entryDy=0;exitX=0.633;exitY=0.984;exitDx=0;exitDy=0;exitPerimeter=0;" edge="1" parent="1" source="jm3a6lzr8KF0GBkQdWP_-46" target="jm3a6lzr8KF0GBkQdWP_-48">
          <mxGeometry relative="1" as="geometry">
            <mxPoint x="360" y="700" as="sourcePoint" />
            <mxPoint x="190" y="755" as="targetPoint" />
          </mxGeometry>
        </mxCell>
        <mxCell id="jm3a6lzr8KF0GBkQdWP_-69" value="extends" style="html=1;verticalAlign=bottom;endArrow=open;dashed=1;endSize=8;curved=0;rounded=0;entryX=0;entryY=0;entryDx=0;entryDy=0;exitX=1;exitY=1;exitDx=0;exitDy=0;" edge="1" parent="1" source="jm3a6lzr8KF0GBkQdWP_-46" target="jm3a6lzr8KF0GBkQdWP_-51">
          <mxGeometry relative="1" as="geometry">
            <mxPoint x="370" y="710" as="sourcePoint" />
            <mxPoint x="200" y="765" as="targetPoint" />
          </mxGeometry>
        </mxCell>
        <mxCell id="jm3a6lzr8KF0GBkQdWP_-72" value="" style="endArrow=none;html=1;rounded=0;exitX=1;exitY=1;exitDx=0;exitDy=0;" edge="1" parent="1" source="jm3a6lzr8KF0GBkQdWP_-43">
          <mxGeometry width="50" height="50" relative="1" as="geometry">
            <mxPoint x="380" y="830" as="sourcePoint" />
            <mxPoint x="780" y="630" as="targetPoint" />
          </mxGeometry>
        </mxCell>
        <mxCell id="jm3a6lzr8KF0GBkQdWP_-73" value="" style="endArrow=none;html=1;rounded=0;exitX=1;exitY=0.5;exitDx=0;exitDy=0;" edge="1" parent="1" source="jm3a6lzr8KF0GBkQdWP_-47">
          <mxGeometry width="50" height="50" relative="1" as="geometry">
            <mxPoint x="380" y="680" as="sourcePoint" />
            <mxPoint x="780" y="630" as="targetPoint" />
          </mxGeometry>
        </mxCell>
        <mxCell id="jm3a6lzr8KF0GBkQdWP_-74" value="" style="endArrow=none;html=1;rounded=0;exitX=1;exitY=1;exitDx=0;exitDy=0;" edge="1" parent="1" source="jm3a6lzr8KF0GBkQdWP_-44">
          <mxGeometry width="50" height="50" relative="1" as="geometry">
            <mxPoint x="380" y="680" as="sourcePoint" />
            <mxPoint x="780" y="630" as="targetPoint" />
          </mxGeometry>
        </mxCell>
        <mxCell id="jm3a6lzr8KF0GBkQdWP_-75" value="" style="endArrow=none;html=1;rounded=0;exitX=1;exitY=1;exitDx=0;exitDy=0;" edge="1" parent="1" source="jm3a6lzr8KF0GBkQdWP_-45">
          <mxGeometry width="50" height="50" relative="1" as="geometry">
            <mxPoint x="380" y="680" as="sourcePoint" />
            <mxPoint x="780" y="630" as="targetPoint" />
            <Array as="points">
              <mxPoint x="430" y="650" />
              <mxPoint x="680" y="690" />
            </Array>
          </mxGeometry>
        </mxCell>
        <mxCell id="jm3a6lzr8KF0GBkQdWP_-76" value="" style="endArrow=none;html=1;rounded=0;exitX=1;exitY=0.5;exitDx=0;exitDy=0;" edge="1" parent="1" source="jm3a6lzr8KF0GBkQdWP_-46">
          <mxGeometry width="50" height="50" relative="1" as="geometry">
            <mxPoint x="380" y="680" as="sourcePoint" />
            <mxPoint x="780" y="630" as="targetPoint" />
            <Array as="points">
              <mxPoint x="700" y="720" />
            </Array>
          </mxGeometry>
        </mxCell>
        <mxCell id="jm3a6lzr8KF0GBkQdWP_-77" value="" style="endArrow=none;html=1;rounded=0;exitX=0.5;exitY=0;exitDx=0;exitDy=0;exitPerimeter=0;" edge="1" parent="1" source="jm3a6lzr8KF0GBkQdWP_-5">
          <mxGeometry width="50" height="50" relative="1" as="geometry">
            <mxPoint x="380" y="680" as="sourcePoint" />
            <mxPoint x="780" y="630" as="targetPoint" />
          </mxGeometry>
        </mxCell>
        <mxCell id="jm3a6lzr8KF0GBkQdWP_-78" value="Commons" style="text;html=1;align=center;verticalAlign=middle;whiteSpace=wrap;rounded=0;" vertex="1" parent="1">
          <mxGeometry x="90" y="790" width="80" height="30" as="geometry" />
        </mxCell>
        <mxCell id="jm3a6lzr8KF0GBkQdWP_-79" value="" style="rounded=0;whiteSpace=wrap;html=1;fillColor=none;strokeWidth=2;" vertex="1" parent="1">
          <mxGeometry x="90" y="830" width="640" height="140" as="geometry" />
        </mxCell>
        <mxCell id="jm3a6lzr8KF0GBkQdWP_-80" value="signin with google" style="ellipse;whiteSpace=wrap;html=1;" vertex="1" parent="1">
          <mxGeometry x="570" y="920" width="120" height="40" as="geometry" />
        </mxCell>
        <mxCell id="jm3a6lzr8KF0GBkQdWP_-81" value="contact" style="ellipse;whiteSpace=wrap;html=1;" vertex="1" parent="1">
          <mxGeometry x="330" y="920" width="120" height="30" as="geometry" />
        </mxCell>
        <mxCell id="jm3a6lzr8KF0GBkQdWP_-82" value="feedback" style="ellipse;whiteSpace=wrap;html=1;" vertex="1" parent="1">
          <mxGeometry x="330" y="860" width="120" height="30" as="geometry" />
        </mxCell>
        <mxCell id="jm3a6lzr8KF0GBkQdWP_-83" value="includes" style="html=1;verticalAlign=bottom;endArrow=open;dashed=1;endSize=8;curved=0;rounded=0;exitX=0;exitY=0.5;exitDx=0;exitDy=0;entryX=1;entryY=0.5;entryDx=0;entryDy=0;" edge="1" parent="1" source="jm3a6lzr8KF0GBkQdWP_-80" target="jm3a6lzr8KF0GBkQdWP_-81">
          <mxGeometry relative="1" as="geometry">
            <mxPoint x="440" y="830" as="sourcePoint" />
            <mxPoint x="360" y="830" as="targetPoint" />
          </mxGeometry>
        </mxCell>
        <mxCell id="jm3a6lzr8KF0GBkQdWP_-84" value="includes" style="html=1;verticalAlign=bottom;endArrow=open;dashed=1;endSize=8;curved=0;rounded=0;exitX=0;exitY=0;exitDx=0;exitDy=0;entryX=1;entryY=0.5;entryDx=0;entryDy=0;" edge="1" parent="1" source="jm3a6lzr8KF0GBkQdWP_-80" target="jm3a6lzr8KF0GBkQdWP_-82">
          <mxGeometry relative="1" as="geometry">
            <mxPoint x="580" y="950" as="sourcePoint" />
            <mxPoint x="460" y="945" as="targetPoint" />
          </mxGeometry>
        </mxCell>
        <mxCell id="jm3a6lzr8KF0GBkQdWP_-85" value="" style="endArrow=none;html=1;rounded=0;exitX=1;exitY=0;exitDx=0;exitDy=0;" edge="1" parent="1" source="jm3a6lzr8KF0GBkQdWP_-81">
          <mxGeometry width="50" height="50" relative="1" as="geometry">
            <mxPoint x="380" y="850" as="sourcePoint" />
            <mxPoint x="800" y="820" as="targetPoint" />
          </mxGeometry>
        </mxCell>
        <mxCell id="jm3a6lzr8KF0GBkQdWP_-86" value="" style="endArrow=none;html=1;rounded=0;exitX=1;exitY=0;exitDx=0;exitDy=0;" edge="1" parent="1" source="jm3a6lzr8KF0GBkQdWP_-82">
          <mxGeometry width="50" height="50" relative="1" as="geometry">
            <mxPoint x="380" y="850" as="sourcePoint" />
            <mxPoint x="800" y="820" as="targetPoint" />
          </mxGeometry>
        </mxCell>
        <mxCell id="jm3a6lzr8KF0GBkQdWP_-87" value="" style="endArrow=none;html=1;rounded=0;entryX=1;entryY=1;entryDx=0;entryDy=0;entryPerimeter=0;" edge="1" parent="1" target="jm3a6lzr8KF0GBkQdWP_-4">
          <mxGeometry width="50" height="50" relative="1" as="geometry">
            <mxPoint x="800" y="820" as="sourcePoint" />
            <mxPoint x="800" y="160" as="targetPoint" />
          </mxGeometry>
        </mxCell>
        <mxCell id="jm3a6lzr8KF0GBkQdWP_-88" value="" style="endArrow=none;html=1;rounded=0;entryX=0;entryY=0.3333333333333333;entryDx=0;entryDy=0;entryPerimeter=0;exitX=1;exitY=0.5;exitDx=0;exitDy=0;" edge="1" parent="1" source="jm3a6lzr8KF0GBkQdWP_-80" target="jm3a6lzr8KF0GBkQdWP_-5">
          <mxGeometry width="50" height="50" relative="1" as="geometry">
            <mxPoint x="380" y="850" as="sourcePoint" />
            <mxPoint x="430" y="800" as="targetPoint" />
          </mxGeometry>
        </mxCell>
        <mxCell id="jm3a6lzr8KF0GBkQdWP_-89" value="Communication" style="text;html=1;align=center;verticalAlign=middle;whiteSpace=wrap;rounded=0;" vertex="1" parent="1">
          <mxGeometry x="90" y="940" width="110" height="30" as="geometry" />
        </mxCell>
        <mxCell id="jm3a6lzr8KF0GBkQdWP_-90" value="extends" style="html=1;verticalAlign=bottom;endArrow=open;dashed=1;endSize=8;curved=0;rounded=0;entryX=0.5;entryY=0;entryDx=0;entryDy=0;exitX=0.5;exitY=1;exitDx=0;exitDy=0;" edge="1" parent="1" source="jm3a6lzr8KF0GBkQdWP_-46" target="jm3a6lzr8KF0GBkQdWP_-82">
          <mxGeometry x="0.4118" relative="1" as="geometry">
            <mxPoint x="416" y="700" as="sourcePoint" />
            <mxPoint x="484" y="750" as="targetPoint" />
            <mxPoint as="offset" />
          </mxGeometry>
        </mxCell>
        <mxCell id="jm3a6lzr8KF0GBkQdWP_-91" value="" style="rounded=0;whiteSpace=wrap;html=1;fillColor=none;strokeWidth=2;" vertex="1" parent="1">
          <mxGeometry x="90" y="980" width="640" height="270" as="geometry" />
        </mxCell>
        <mxCell id="jm3a6lzr8KF0GBkQdWP_-92" value="new" style="ellipse;whiteSpace=wrap;html=1;" vertex="1" parent="1">
          <mxGeometry x="625" y="1000" width="70" height="40" as="geometry" />
        </mxCell>
        <mxCell id="jm3a6lzr8KF0GBkQdWP_-93" value="list" style="ellipse;whiteSpace=wrap;html=1;" vertex="1" parent="1">
          <mxGeometry x="630" y="1070" width="60" height="40" as="geometry" />
        </mxCell>
        <mxCell id="jm3a6lzr8KF0GBkQdWP_-94" value="edit" style="ellipse;whiteSpace=wrap;html=1;" vertex="1" parent="1">
          <mxGeometry x="630" y="1140" width="60" height="40" as="geometry" />
        </mxCell>
        <mxCell id="jm3a6lzr8KF0GBkQdWP_-95" value="forecast" style="ellipse;whiteSpace=wrap;html=1;" vertex="1" parent="1">
          <mxGeometry x="390" y="1050" width="80" height="40" as="geometry" />
        </mxCell>
        <mxCell id="jm3a6lzr8KF0GBkQdWP_-96" value="users" style="ellipse;whiteSpace=wrap;html=1;" vertex="1" parent="1">
          <mxGeometry x="110" y="1000" width="70" height="40" as="geometry" />
        </mxCell>
        <mxCell id="jm3a6lzr8KF0GBkQdWP_-97" value="blog" style="ellipse;whiteSpace=wrap;html=1;" vertex="1" parent="1">
          <mxGeometry x="480" y="1080" width="70" height="40" as="geometry" />
        </mxCell>
        <mxCell id="jm3a6lzr8KF0GBkQdWP_-98" value="FAQ" style="ellipse;whiteSpace=wrap;html=1;" vertex="1" parent="1">
          <mxGeometry x="504" y="1010" width="66" height="40" as="geometry" />
        </mxCell>
        <mxCell id="jm3a6lzr8KF0GBkQdWP_-99" value="settings" style="ellipse;whiteSpace=wrap;html=1;" vertex="1" parent="1">
          <mxGeometry x="245" y="1090" width="80" height="40" as="geometry" />
        </mxCell>
        <mxCell id="jm3a6lzr8KF0GBkQdWP_-100" value="policy" style="ellipse;whiteSpace=wrap;html=1;" vertex="1" parent="1">
          <mxGeometry x="130" y="1160" width="70" height="40" as="geometry" />
        </mxCell>
        <mxCell id="jm3a6lzr8KF0GBkQdWP_-101" value="terms" style="ellipse;whiteSpace=wrap;html=1;" vertex="1" parent="1">
          <mxGeometry x="225" y="1160" width="70" height="40" as="geometry" />
        </mxCell>
        <mxCell id="jm3a6lzr8KF0GBkQdWP_-102" value="[admin privacy]" style="ellipse;whiteSpace=wrap;html=1;" vertex="1" parent="1">
          <mxGeometry x="310" y="1160" width="120" height="40" as="geometry" />
        </mxCell>
        <mxCell id="jm3a6lzr8KF0GBkQdWP_-103" value="settings" style="ellipse;whiteSpace=wrap;html=1;" vertex="1" parent="1">
          <mxGeometry x="450" y="1160" width="70" height="40" as="geometry" />
        </mxCell>
        <mxCell id="jm3a6lzr8KF0GBkQdWP_-104" value="extends" style="html=1;verticalAlign=bottom;endArrow=open;dashed=1;endSize=8;curved=0;rounded=0;exitX=1;exitY=0.5;exitDx=0;exitDy=0;entryX=0;entryY=0.5;entryDx=0;entryDy=0;" edge="1" parent="1" source="jm3a6lzr8KF0GBkQdWP_-98" target="jm3a6lzr8KF0GBkQdWP_-92">
          <mxGeometry relative="1" as="geometry">
            <mxPoint x="372" y="702" as="sourcePoint" />
            <mxPoint x="350" y="745" as="targetPoint" />
          </mxGeometry>
        </mxCell>
        <mxCell id="jm3a6lzr8KF0GBkQdWP_-105" value="extends" style="html=1;verticalAlign=bottom;endArrow=open;dashed=1;endSize=8;curved=0;rounded=0;exitX=1;exitY=1;exitDx=0;exitDy=0;entryX=0;entryY=0;entryDx=0;entryDy=0;" edge="1" parent="1" source="jm3a6lzr8KF0GBkQdWP_-98" target="jm3a6lzr8KF0GBkQdWP_-93">
          <mxGeometry relative="1" as="geometry">
            <mxPoint x="580" y="1040" as="sourcePoint" />
            <mxPoint x="635" y="1030" as="targetPoint" />
          </mxGeometry>
        </mxCell>
        <mxCell id="jm3a6lzr8KF0GBkQdWP_-106" value="extends" style="html=1;verticalAlign=bottom;endArrow=open;dashed=1;endSize=8;curved=0;rounded=0;exitX=0.5;exitY=1;exitDx=0;exitDy=0;entryX=0;entryY=0;entryDx=0;entryDy=0;" edge="1" parent="1" source="jm3a6lzr8KF0GBkQdWP_-98" target="jm3a6lzr8KF0GBkQdWP_-94">
          <mxGeometry relative="1" as="geometry">
            <mxPoint x="590" y="1050" as="sourcePoint" />
            <mxPoint x="645" y="1040" as="targetPoint" />
          </mxGeometry>
        </mxCell>
        <mxCell id="jm3a6lzr8KF0GBkQdWP_-107" value="extends" style="html=1;verticalAlign=bottom;endArrow=open;dashed=1;endSize=8;curved=0;rounded=0;exitX=1;exitY=1;exitDx=0;exitDy=0;entryX=0;entryY=0.5;entryDx=0;entryDy=0;" edge="1" parent="1" source="jm3a6lzr8KF0GBkQdWP_-97" target="jm3a6lzr8KF0GBkQdWP_-94">
          <mxGeometry relative="1" as="geometry">
            <mxPoint x="600" y="1060" as="sourcePoint" />
            <mxPoint x="655" y="1050" as="targetPoint" />
          </mxGeometry>
        </mxCell>
        <mxCell id="jm3a6lzr8KF0GBkQdWP_-108" value="extends" style="html=1;verticalAlign=bottom;endArrow=open;dashed=1;endSize=8;curved=0;rounded=0;exitX=1;exitY=0.5;exitDx=0;exitDy=0;entryX=0;entryY=1;entryDx=0;entryDy=0;" edge="1" parent="1" source="jm3a6lzr8KF0GBkQdWP_-97" target="jm3a6lzr8KF0GBkQdWP_-93">
          <mxGeometry relative="1" as="geometry">
            <mxPoint x="610" y="1070" as="sourcePoint" />
            <mxPoint x="665" y="1060" as="targetPoint" />
          </mxGeometry>
        </mxCell>
        <mxCell id="jm3a6lzr8KF0GBkQdWP_-110" value="extends" style="html=1;verticalAlign=bottom;endArrow=open;dashed=1;endSize=8;curved=0;rounded=0;exitX=1;exitY=0;exitDx=0;exitDy=0;entryX=0;entryY=1;entryDx=0;entryDy=0;" edge="1" parent="1" source="jm3a6lzr8KF0GBkQdWP_-97" target="jm3a6lzr8KF0GBkQdWP_-92">
          <mxGeometry relative="1" as="geometry">
            <mxPoint x="620" y="1080" as="sourcePoint" />
            <mxPoint x="675" y="1070" as="targetPoint" />
          </mxGeometry>
        </mxCell>
        <mxCell id="jm3a6lzr8KF0GBkQdWP_-111" value="extends" style="html=1;verticalAlign=bottom;endArrow=open;dashed=1;endSize=8;curved=0;rounded=0;exitX=0.5;exitY=0;exitDx=0;exitDy=0;entryX=0;entryY=0;entryDx=0;entryDy=0;" edge="1" parent="1" source="jm3a6lzr8KF0GBkQdWP_-95" target="jm3a6lzr8KF0GBkQdWP_-92">
          <mxGeometry relative="1" as="geometry">
            <mxPoint x="630" y="1090" as="sourcePoint" />
            <mxPoint x="685" y="1080" as="targetPoint" />
            <Array as="points">
              <mxPoint x="460" y="1006" />
            </Array>
          </mxGeometry>
        </mxCell>
        <mxCell id="jm3a6lzr8KF0GBkQdWP_-112" value="extends" style="html=1;verticalAlign=bottom;endArrow=open;dashed=1;endSize=8;curved=0;rounded=0;exitX=0.5;exitY=1;exitDx=0;exitDy=0;entryX=0.5;entryY=1;entryDx=0;entryDy=0;" edge="1" parent="1" source="jm3a6lzr8KF0GBkQdWP_-95" target="jm3a6lzr8KF0GBkQdWP_-94">
          <mxGeometry relative="1" as="geometry">
            <mxPoint x="640" y="1100" as="sourcePoint" />
            <mxPoint x="695" y="1090" as="targetPoint" />
            <Array as="points">
              <mxPoint x="580" y="1180" />
            </Array>
          </mxGeometry>
        </mxCell>
        <mxCell id="jm3a6lzr8KF0GBkQdWP_-113" value="extends" style="html=1;verticalAlign=bottom;endArrow=open;dashed=1;endSize=8;curved=0;rounded=0;exitX=1;exitY=0.5;exitDx=0;exitDy=0;entryX=0.5;entryY=0;entryDx=0;entryDy=0;" edge="1" parent="1" source="jm3a6lzr8KF0GBkQdWP_-99" target="jm3a6lzr8KF0GBkQdWP_-103">
          <mxGeometry relative="1" as="geometry">
            <mxPoint x="650" y="1110" as="sourcePoint" />
            <mxPoint x="705" y="1100" as="targetPoint" />
          </mxGeometry>
        </mxCell>
        <mxCell id="jm3a6lzr8KF0GBkQdWP_-114" value="extends" style="html=1;verticalAlign=bottom;endArrow=open;dashed=1;endSize=8;curved=0;rounded=0;exitX=1;exitY=1;exitDx=0;exitDy=0;entryX=0.5;entryY=0;entryDx=0;entryDy=0;" edge="1" parent="1" source="jm3a6lzr8KF0GBkQdWP_-99" target="jm3a6lzr8KF0GBkQdWP_-102">
          <mxGeometry relative="1" as="geometry">
            <mxPoint x="335" y="1120" as="sourcePoint" />
            <mxPoint x="495" y="1170" as="targetPoint" />
          </mxGeometry>
        </mxCell>
        <mxCell id="jm3a6lzr8KF0GBkQdWP_-115" value="extends" style="html=1;verticalAlign=bottom;endArrow=open;dashed=1;endSize=8;curved=0;rounded=0;exitX=0.5;exitY=1;exitDx=0;exitDy=0;entryX=0.5;entryY=0;entryDx=0;entryDy=0;" edge="1" parent="1" source="jm3a6lzr8KF0GBkQdWP_-99" target="jm3a6lzr8KF0GBkQdWP_-101">
          <mxGeometry relative="1" as="geometry">
            <mxPoint x="345" y="1130" as="sourcePoint" />
            <mxPoint x="505" y="1180" as="targetPoint" />
          </mxGeometry>
        </mxCell>
        <mxCell id="jm3a6lzr8KF0GBkQdWP_-116" value="extends" style="html=1;verticalAlign=bottom;endArrow=open;dashed=1;endSize=8;curved=0;rounded=0;exitX=0;exitY=1;exitDx=0;exitDy=0;entryX=0.5;entryY=0;entryDx=0;entryDy=0;" edge="1" parent="1" source="jm3a6lzr8KF0GBkQdWP_-99" target="jm3a6lzr8KF0GBkQdWP_-100">
          <mxGeometry relative="1" as="geometry">
            <mxPoint x="355" y="1140" as="sourcePoint" />
            <mxPoint x="515" y="1190" as="targetPoint" />
          </mxGeometry>
        </mxCell>
        <mxCell id="jm3a6lzr8KF0GBkQdWP_-117" value="regular" style="ellipse;whiteSpace=wrap;html=1;" vertex="1" parent="1">
          <mxGeometry x="220" y="990" width="80" height="30" as="geometry" />
        </mxCell>
        <mxCell id="jm3a6lzr8KF0GBkQdWP_-118" value="admin" style="ellipse;whiteSpace=wrap;html=1;" vertex="1" parent="1">
          <mxGeometry x="300" y="1020" width="70" height="30" as="geometry" />
        </mxCell>
        <mxCell id="jm3a6lzr8KF0GBkQdWP_-119" value="extends" style="html=1;verticalAlign=bottom;endArrow=open;dashed=1;endSize=8;curved=0;rounded=0;exitX=1;exitY=0;exitDx=0;exitDy=0;entryX=0;entryY=0;entryDx=0;entryDy=0;" edge="1" parent="1" source="jm3a6lzr8KF0GBkQdWP_-96" target="jm3a6lzr8KF0GBkQdWP_-117">
          <mxGeometry relative="1" as="geometry">
            <mxPoint x="335" y="1120" as="sourcePoint" />
            <mxPoint x="495" y="1170" as="targetPoint" />
          </mxGeometry>
        </mxCell>
        <mxCell id="jm3a6lzr8KF0GBkQdWP_-120" value="extends" style="html=1;verticalAlign=bottom;endArrow=open;dashed=1;endSize=8;curved=0;rounded=0;exitX=1;exitY=0.5;exitDx=0;exitDy=0;entryX=0;entryY=0.5;entryDx=0;entryDy=0;" edge="1" parent="1" source="jm3a6lzr8KF0GBkQdWP_-96" target="jm3a6lzr8KF0GBkQdWP_-118">
          <mxGeometry relative="1" as="geometry">
            <mxPoint x="345" y="1130" as="sourcePoint" />
            <mxPoint x="505" y="1180" as="targetPoint" />
            <Array as="points">
              <mxPoint x="220" y="1040" />
            </Array>
          </mxGeometry>
        </mxCell>
        <mxCell id="jm3a6lzr8KF0GBkQdWP_-121" value="" style="endArrow=none;html=1;rounded=0;exitX=0;exitY=0.5;exitDx=0;exitDy=0;" edge="1" parent="1" source="jm3a6lzr8KF0GBkQdWP_-95">
          <mxGeometry width="50" height="50" relative="1" as="geometry">
            <mxPoint x="380" y="1000" as="sourcePoint" />
            <mxPoint x="10" y="1070" as="targetPoint" />
          </mxGeometry>
        </mxCell>
        <mxCell id="jm3a6lzr8KF0GBkQdWP_-122" value="" style="endArrow=none;html=1;rounded=0;exitX=0;exitY=0.5;exitDx=0;exitDy=0;" edge="1" parent="1" source="jm3a6lzr8KF0GBkQdWP_-96">
          <mxGeometry width="50" height="50" relative="1" as="geometry">
            <mxPoint x="380" y="1000" as="sourcePoint" />
            <mxPoint x="10" y="1070" as="targetPoint" />
          </mxGeometry>
        </mxCell>
        <mxCell id="jm3a6lzr8KF0GBkQdWP_-123" value="" style="endArrow=none;html=1;rounded=0;exitX=0;exitY=0.5;exitDx=0;exitDy=0;" edge="1" parent="1" source="jm3a6lzr8KF0GBkQdWP_-99">
          <mxGeometry width="50" height="50" relative="1" as="geometry">
            <mxPoint x="380" y="1000" as="sourcePoint" />
            <mxPoint x="10" y="1070" as="targetPoint" />
            <Array as="points">
              <mxPoint x="120" y="1110" />
            </Array>
          </mxGeometry>
        </mxCell>
        <mxCell id="jm3a6lzr8KF0GBkQdWP_-124" value="" style="endArrow=none;html=1;rounded=0;entryX=0;entryY=0.5;entryDx=0;entryDy=0;" edge="1" parent="1" target="jm3a6lzr8KF0GBkQdWP_-98">
          <mxGeometry width="50" height="50" relative="1" as="geometry">
            <mxPoint x="10" y="1070" as="sourcePoint" />
            <mxPoint x="430" y="950" as="targetPoint" />
            <Array as="points">
              <mxPoint x="380" y="1060" />
              <mxPoint x="400" y="1040" />
            </Array>
          </mxGeometry>
        </mxCell>
        <mxCell id="jm3a6lzr8KF0GBkQdWP_-125" value="" style="endArrow=none;html=1;rounded=0;entryX=0;entryY=0.5;entryDx=0;entryDy=0;" edge="1" parent="1" target="jm3a6lzr8KF0GBkQdWP_-97">
          <mxGeometry width="50" height="50" relative="1" as="geometry">
            <mxPoint x="10" y="1070" as="sourcePoint" />
            <mxPoint x="430" y="950" as="targetPoint" />
            <Array as="points">
              <mxPoint x="360" y="1080" />
              <mxPoint x="410" y="1110" />
            </Array>
          </mxGeometry>
        </mxCell>
        <mxCell id="jm3a6lzr8KF0GBkQdWP_-126" value="" style="endArrow=none;html=1;rounded=0;entryX=0;entryY=0.3333333333333333;entryDx=0;entryDy=0;entryPerimeter=0;" edge="1" parent="1" target="jm3a6lzr8KF0GBkQdWP_-3">
          <mxGeometry width="50" height="50" relative="1" as="geometry">
            <mxPoint x="10" y="1070" as="sourcePoint" />
            <mxPoint x="430" y="950" as="targetPoint" />
            <Array as="points">
              <mxPoint x="10" y="90" />
            </Array>
          </mxGeometry>
        </mxCell>
        <mxCell id="jm3a6lzr8KF0GBkQdWP_-127" value="Admin Dashboard" style="text;html=1;align=center;verticalAlign=middle;whiteSpace=wrap;rounded=0;" vertex="1" parent="1">
          <mxGeometry x="90" y="1220" width="120" height="30" as="geometry" />
        </mxCell>
      </root>
    </mxGraphModel>
  </diagram>
</mxfile>
